#!OML:ASF F:\VICON\USERDATA\INSTALL\SteveWalk\SteveWalk.ASF
:FULLY-SPECIFIED
:DEGREES
93
root -0.380818 16.2952 -26.3846 15.4158 2.242 2.96479
lowerback -13.5998 -1.97756 -3.34658
upperback -4.33635 -2.17625 0.195061
thorax 3.18063 -1.07694 1.74021
lowerneck -2.81651 -0.582453 0.826164
upperneck 6.67128 -0.829013 0.0601049
head 2.58938 -0.390285 -0.148245
rclavicle -2.65657e-014 -1.09332e-014
rhumerus -97.763 -37.6937 9.48846
rradius 10.5002
rwrist 71.5359
rhand -16.8832 -31.6687
rfingers 7.12502
rthumb 9.34809 -61.4414
lclavicle -2.65657e-014 -1.09332e-014
lhumerus -17.6602 4.4094 80.5098
lradius 36.5183
lwrist 6.63773
lhand -20.1329 -18.3821
lfingers 7.12502
lthumb 6.21154 11.5068
rfemur -48.2933 -5.89149 22.5635
rtibia 28.6818
rfoot -13.3345 -3.05796
rtoes -15.7289
lfemur -8.56591 3.40005 -23.5902
ltibia 25.1169
lfoot -24.3703 -11.1773
ltoes -14.0811
94
root -0.384479 16.279 -26.1668 15.5019 2.75173 3.12211
lowerback -13.7669 -2.12924 -3.35887
upperback -4.28985 -2.36667 0.189603
thorax 3.33061 -1.17359 1.70378
lowerneck -2.53905 -0.652598 0.85822
upperneck 6.33019 -0.921751 0.0849218
head 2.42413 -0.436409 -0.146135
rclavicle -2.95941e-014 -9.54166e-015
rhumerus -98.8057 -36.592 11.247
rradius 10.5797
rwrist 71.807
rhand -16.9784 -31.5018
rfingers 7.12502
rthumb 9.25621 -61.2786
lclavicle -2.95941e-014 -9.54166e-015
lhumerus -16.8123 3.80252 80.4547
lradius 37.9712
lwrist 7.64558
lhand -19.6524 -17.6114
lfingers 7.12502
lthumb 6.67537 12.2634
rfemur -48.3588 -6.02396 22.327
rtibia 26.2091
rfoot -13.2831 -2.73086
rtoes -15.5778
lfemur -7.28859 3.37128 -23.507
ltibia 23.9858
lfoot -24.0717 -11.4807
ltoes -7.04531
95
root -0.385094 16.2616 -25.9436 15.5421 3.2635 3.39954
lowerback -13.8114 -2.26958 -3.40885
upperback -4.28184 -2.53934 0.110682
thorax 3.37107 -1.2597 1.61853
lowerneck -2.27465 -0.738393 0.85286
upperneck 6.06924 -1.04002 0.214086
head 2.2896 -0.493115 -0.105355
rclavicle -1.42411e-014 -5.1684e-015
rhumerus -98.5375 -35.5638 10.6943
rradius 10.6863
rwrist 70.2117
rhand -16.3736 -32.7782
rfingers 7.12502
rthumb 9.83969 -62.5283
lclavicle -1.42411e-014 -5.1684e-015
lhumerus -16.1609 3.06663 80.3713
lradius 39.3536
lwrist 8.6045
lhand -19.6755 -17.081
lfingers 7.12502
lthumb 6.6531 12.7945
rfemur -48.4106 -6.47862 22.1125
rtibia 24.0282
rfoot -13.314 -2.16399
rtoes -16.1384
lfemur -5.87232 2.96977 -23.5697
ltibia 22.9158
lfoot -23.7434 -11.4395
ltoes -11.4244
96
root -0.39355 16.2411 -25.7188 15.577 3.78903 3.60607
lowerback -13.8295 -2.43384 -3.47963
upperback -4.22203 -2.74371 0.0949806
thorax 3.4571 -1.36266 1.60504
lowerneck -2.39462 -0.750037 0.785511
upperneck 6.02633 -1.06146 0.347214
head 2.29831 -0.501664 -0.0528933
rclavicle 2.38448e-014 5.36719e-015
rhumerus -97.1157 -34.8395 8.13342
rradius 10.8242
rwrist 67.0166
rhand -15.7461 -33.7619
rfingers 7.12502
rthumb 10.4451 -63.4824
lclavicle 2.38448e-014 5.36719e-015
lhumerus -15.4117 2.45127 80.2966
lradius 40.5051
lwrist 9.14865
lhand -20.6231 -17.0043
lfingers 7.12502
lthumb 5.73828 12.898
rfemur -48.4984 -6.9323 22.0225
rtibia 22.1945
rfoot -13.7233 -1.21837
rtoes -15.9597
lfemur -4.50699 2.59773 -23.5231
ltibia 21.8963
lfoot -23.3876 -11.3562
ltoes -13.3762
97
root -0.400954 16.2171 -25.4943 15.7059 4.17244 3.63275
lowerback -13.9176 -2.57244 -3.42202
upperback -4.21696 -2.93502 0.19711
thorax 3.52319 -1.45793 1.64308
lowerneck -2.60266 -0.690118 0.770128
upperneck 6.03384 -0.978187 0.272148
head 2.33862 -0.462295 -0.0727528
rclavicle 1.49585e-014 7.15625e-015
rhumerus -95.6489 -34.1778 5.66564
rradius 10.9556
rwrist 63.9894
rhand -15.4868 -34.0313
rfingers 7.12502
rthumb 10.6953 -63.739
lclavicle 1.49585e-014 7.15625e-015
lhumerus -14.7984 2.1146 80.2861
lradius 41.7516
lwrist 9.40388
lhand -21.7474 -16.7098
lfingers 7.12502
lthumb 4.65268 13.2191
rfemur -48.8206 -7.361 22.23
rtibia 20.7407
rfoot -14.2441 0.238935
rtoes -13.9382
lfemur -3.34689 2.37328 -23.3417
ltibia 20.9573
lfoot -22.929 -11.1835
ltoes -14.1775
98
root -0.401472 16.1956 -25.2711 15.9525 4.54927 3.69682
lowerback -14.0769 -2.69636 -3.28923
upperback -4.31839 -3.11491 0.273552
thorax 3.51019 -1.54508 1.61338
lowerneck -2.66221 -0.643129 0.725227
upperneck 6.08997 -0.907906 0.172681
head 2.368 -0.430837 -0.0950365
rclavicle -2.12669e-014 8.74653e-015
rhumerus -94.7058 -33.4112 4.07713
rradius 11.0587
rwrist 61.8537
rhand -15.0794 -34.5041
rfingers 7.12502
rthumb 11.0881 -64.1912
lclavicle -2.12669e-014 8.74653e-015
lhumerus -14.3701 1.83767 80.2047
lradius 42.7043
lwrist 9.78183
lhand -21.8523 -17.431
lfingers 7.12502
lthumb 4.55138 12.5001
rfemur -49.4083 -8.16563 22.6986
rtibia 19.6091
rfoot -14.3226 2.12153
rtoes -11.6232
lfemur -2.40516 1.90688 -23.2558
ltibia 20.2047
lfoot -22.3932 -10.8537
ltoes -14.984
99
root -0.401043 16.1712 -25.0485 16.2696 5.00325 3.86544
lowerback -14.2564 -2.84347 -3.17617
upperback -4.38613 -3.31956 0.302534
thorax 3.54244 -1.64551 1.53842
lowerneck -3.08015 -0.623881 0.665962
upperneck 6.32806 -0.878906 0.0965576
head 2.52401 -0.418804 -0.110838
rclavicle 8.69683e-017 -6.36111e-015
rhumerus -95.391 -32.8201 5.44207
rradius 11.081
rwrist 62.1826
rhand -14.7069 -34.7542
rfingers 7.12502
rthumb 11.4474 -64.4217
lclavicle 8.69683e-017 -6.36111e-015
lhumerus -13.9348 1.37756 80.0841
lradius 43.8357
lwrist 10.3467
lhand -22.1517 -17.598
lfingers 7.12502
lthumb 4.2623 12.3391
rfemur -50.0832 -8.99014 23.0507
rtibia 18.8697
rfoot -14.4006 3.73832
rtoes -10.3672
lfemur -1.63717 1.39455 -23.2662
ltibia 19.5811
lfoot -21.9716 -10.49
ltoes -16.7398
100
root -0.405033 16.1355 -24.8187 16.4715 5.31398 4.09331
lowerback -14.2824 -2.97825 -3.1766
upperback -4.46811 -3.49821 0.325277
thorax 3.48093 -1.73228 1.53202
lowerneck -3.3006 -0.63736 0.601579
upperneck 6.32559 -0.888218 -0.00696648
head 2.56373 -0.427997 -0.134061
rclavicle 2.99047e-014 1.35174e-014
rhumerus -96.8402 -32.1728 8.44184
rradius 11.0256
rwrist 63.9989
rhand -14.5263 -34.6524
rfingers 7.12502
rthumb 11.6216 -64.3101
lclavicle 2.99047e-014 1.35174e-014
lhumerus -13.7053 1.11055 79.9328
lradius 45.0714
lwrist 10.6735
lhand -22.5843 -17.5656
lfingers 7.12502
lthumb 3.84449 12.3794
rfemur -50.4475 -9.06911 22.7076
rtibia 18.4982
rfoot -14.5408 4.46788
rtoes -11.2143
lfemur -0.826252 1.15754 -23.3348
ltibia 19.1003
lfoot -21.3329 -10.4775
ltoes -19.1022
101
root -0.407318 16.0939 -24.5781 16.5719 5.62257 4.389
lowerback -14.1425 -3.12135 -3.18085
upperback -4.7005 -3.69429 0.319861
thorax 3.17115 -1.82364 1.50834
lowerneck -3.01911 -0.611087 0.427211
upperneck 6.18637 -0.838994 -0.0418416
head 2.466 -0.409123 -0.112002
rclavicle 1.45796e-014 3.18055e-015
rhumerus -96.6089 -31.3612 8.31345
rradius 11.0627
rwrist 63.4995
rhand -14.1984 -34.7863
rfingers 7.12502
rthumb 11.9378 -64.4259
lclavicle 1.45796e-014 3.18055e-015
lhumerus -13.8607 0.978896 79.7303
lradius 46.2263
lwrist 10.9383
lhand -22.9005 -17.7974
lfingers 7.12502
lthumb 3.53918 12.1529
rfemur -50.407 -8.7974 21.8316
rtibia 18.2727
rfoot -14.4562 4.67143
rtoes -13.7861
lfemur 0.0333372 0.979272 -23.4564
ltibia 19.0054
lfoot -21.0929 -10.1152
ltoes -24.3115
